<svg xmlns="http://www.w3.org/2000/svg" xmlns:xlink="http://www.w3.org/1999/xlink" width="1920" zoomAndPan="magnify" viewBox="0 0 1440 1012.49997" height="1350" preserveAspectRatio="xMidYMid meet" version="1.0"><defs><clipPath id="a74f895275"><path d="M 0.355469 0 L 1439.644531 0 L 1439.644531 1012 L 0.355469 1012 Z M 0.355469 0 " clip-rule="nonzero"/></clipPath><clipPath id="8b70212d01"><path d="M 227 206 L 266 206 L 266 242 L 227 242 Z M 227 206 " clip-rule="nonzero"/></clipPath><clipPath id="da13526f53"><path d="M 76.011719 126.167969 L 328.910156 0.0273438 L 474.453125 291.835938 L 221.554688 417.972656 Z M 76.011719 126.167969 " clip-rule="nonzero"/></clipPath><clipPath id="37f7fd63b7"><path d="M 76.011719 126.167969 L 328.910156 0.0273438 L 474.453125 291.835938 L 221.554688 417.972656 Z M 76.011719 126.167969 " clip-rule="nonzero"/></clipPath><clipPath id="d84b50d254"><path d="M 208 228 L 227 228 L 227 244 L 208 244 Z M 208 228 " clip-rule="nonzero"/></clipPath><clipPath id="50cd9eed59"><path d="M 76.011719 126.167969 L 328.910156 0.0273438 L 474.453125 291.835938 L 221.554688 417.972656 Z M 76.011719 126.167969 " clip-rule="nonzero"/></clipPath><clipPath id="2e3bb28bb1"><path d="M 76.011719 126.167969 L 328.910156 0.0273438 L 474.453125 291.835938 L 221.554688 417.972656 Z M 76.011719 126.167969 " clip-rule="nonzero"/></clipPath><clipPath id="279e4dc9af"><path d="M 244 186 L 260 186 L 260 205 L 244 205 Z M 244 186 " clip-rule="nonzero"/></clipPath><clipPath id="a94c255788"><path d="M 76.011719 126.167969 L 328.910156 0.0273438 L 474.453125 291.835938 L 221.554688 417.972656 Z M 76.011719 126.167969 " clip-rule="nonzero"/></clipPath><clipPath id="34bc24570f"><path d="M 76.011719 126.167969 L 328.910156 0.0273438 L 474.453125 291.835938 L 221.554688 417.972656 Z M 76.011719 126.167969 " clip-rule="nonzero"/></clipPath><clipPath id="248ad68030"><path d="M 225 192 L 242 192 L 242 211 L 225 211 Z M 225 192 " clip-rule="nonzero"/></clipPath><clipPath id="2f6a62af4a"><path d="M 76.011719 126.167969 L 328.910156 0.0273438 L 474.453125 291.835938 L 221.554688 417.972656 Z M 76.011719 126.167969 " clip-rule="nonzero"/></clipPath><clipPath id="f7d622d068"><path d="M 76.011719 126.167969 L 328.910156 0.0273438 L 474.453125 291.835938 L 221.554688 417.972656 Z M 76.011719 126.167969 " clip-rule="nonzero"/></clipPath><clipPath id="470dede6f9"><path d="M 209 207 L 228 207 L 228 224 L 209 224 Z M 209 207 " clip-rule="nonzero"/></clipPath><clipPath id="d68ba65330"><path d="M 76.011719 126.167969 L 328.910156 0.0273438 L 474.453125 291.835938 L 221.554688 417.972656 Z M 76.011719 126.167969 " clip-rule="nonzero"/></clipPath><clipPath id="a43fa90fab"><path d="M 76.011719 126.167969 L 328.910156 0.0273438 L 474.453125 291.835938 L 221.554688 417.972656 Z M 76.011719 126.167969 " clip-rule="nonzero"/></clipPath><clipPath id="e23f8e083d"><path d="M 216 79 L 251 79 L 251 116 L 216 116 Z M 216 79 " clip-rule="nonzero"/></clipPath><clipPath id="680fba1cea"><path d="M 76.011719 126.167969 L 328.910156 0.0273438 L 474.453125 291.835938 L 221.554688 417.972656 Z M 76.011719 126.167969 " clip-rule="nonzero"/></clipPath><clipPath id="f6ba6bc7c4"><path d="M 76.011719 126.167969 L 328.910156 0.0273438 L 474.453125 291.835938 L 221.554688 417.972656 Z M 76.011719 126.167969 " clip-rule="nonzero"/></clipPath><clipPath id="77d5462930"><path d="M 197 105 L 217 105 L 217 121 L 197 121 Z M 197 105 " clip-rule="nonzero"/></clipPath><clipPath id="6a2495cd50"><path d="M 76.011719 126.167969 L 328.910156 0.0273438 L 474.453125 291.835938 L 221.554688 417.972656 Z M 76.011719 126.167969 " clip-rule="nonzero"/></clipPath><clipPath id="8258d13c4f"><path d="M 76.011719 126.167969 L 328.910156 0.0273438 L 474.453125 291.835938 L 221.554688 417.972656 Z M 76.011719 126.167969 " clip-rule="nonzero"/></clipPath><clipPath id="645ed04af0"><path d="M 229 59 L 246 59 L 246 79 L 229 79 Z M 229 59 " clip-rule="nonzero"/></clipPath><clipPath id="c9a4b5bcd6"><path d="M 76.011719 126.167969 L 328.910156 0.0273438 L 474.453125 291.835938 L 221.554688 417.972656 Z M 76.011719 126.167969 " clip-rule="nonzero"/></clipPath><clipPath id="3a778589c6"><path d="M 76.011719 126.167969 L 328.910156 0.0273438 L 474.453125 291.835938 L 221.554688 417.972656 Z M 76.011719 126.167969 " clip-rule="nonzero"/></clipPath><clipPath id="001b0e91cf"><path d="M 211 68 L 228 68 L 228 86 L 211 86 Z M 211 68 " clip-rule="nonzero"/></clipPath><clipPath id="206a7d48de"><path d="M 76.011719 126.167969 L 328.910156 0.0273438 L 474.453125 291.835938 L 221.554688 417.972656 Z M 76.011719 126.167969 " clip-rule="nonzero"/></clipPath><clipPath id="6afaff1601"><path d="M 76.011719 126.167969 L 328.910156 0.0273438 L 474.453125 291.835938 L 221.554688 417.972656 Z M 76.011719 126.167969 " clip-rule="nonzero"/></clipPath><clipPath id="96eb618025"><path d="M 197 84 L 216 84 L 216 101 L 197 101 Z M 197 84 " clip-rule="nonzero"/></clipPath><clipPath id="49cd847a95"><path d="M 76.011719 126.167969 L 328.910156 0.0273438 L 474.453125 291.835938 L 221.554688 417.972656 Z M 76.011719 126.167969 " clip-rule="nonzero"/></clipPath><clipPath id="83f54e7067"><path d="M 76.011719 126.167969 L 328.910156 0.0273438 L 474.453125 291.835938 L 221.554688 417.972656 Z M 76.011719 126.167969 " clip-rule="nonzero"/></clipPath><clipPath id="46ad04f51f"><path d="M 339 182 L 375 182 L 375 218 L 339 218 Z M 339 182 " clip-rule="nonzero"/></clipPath><clipPath id="0b3f6c8257"><path d="M 76.011719 126.167969 L 328.910156 0.0273438 L 474.453125 291.835938 L 221.554688 417.972656 Z M 76.011719 126.167969 " clip-rule="nonzero"/></clipPath><clipPath id="c4303a009a"><path d="M 76.011719 126.167969 L 328.910156 0.0273438 L 474.453125 291.835938 L 221.554688 417.972656 Z M 76.011719 126.167969 " clip-rule="nonzero"/></clipPath><clipPath id="2ab3d0ff1e"><path d="M 319 204 L 339 204 L 339 221 L 319 221 Z M 319 204 " clip-rule="nonzero"/></clipPath><clipPath id="9aefec653c"><path d="M 76.011719 126.167969 L 328.910156 0.0273438 L 474.453125 291.835938 L 221.554688 417.972656 Z M 76.011719 126.167969 " clip-rule="nonzero"/></clipPath><clipPath id="9660f63631"><path d="M 76.011719 126.167969 L 328.910156 0.0273438 L 474.453125 291.835938 L 221.554688 417.972656 Z M 76.011719 126.167969 " clip-rule="nonzero"/></clipPath><clipPath id="4446c32fc4"><path d="M 356 162 L 372 162 L 372 182 L 356 182 Z M 356 162 " clip-rule="nonzero"/></clipPath><clipPath id="78e0125ed7"><path d="M 76.011719 126.167969 L 328.910156 0.0273438 L 474.453125 291.835938 L 221.554688 417.972656 Z M 76.011719 126.167969 " clip-rule="nonzero"/></clipPath><clipPath id="844b568806"><path d="M 76.011719 126.167969 L 328.910156 0.0273438 L 474.453125 291.835938 L 221.554688 417.972656 Z M 76.011719 126.167969 " clip-rule="nonzero"/></clipPath><clipPath id="5e5c7e4038"><path d="M 337 168 L 354 168 L 354 187 L 337 187 Z M 337 168 " clip-rule="nonzero"/></clipPath><clipPath id="83df9e200c"><path d="M 76.011719 126.167969 L 328.910156 0.0273438 L 474.453125 291.835938 L 221.554688 417.972656 Z M 76.011719 126.167969 " clip-rule="nonzero"/></clipPath><clipPath id="20537e9993"><path d="M 76.011719 126.167969 L 328.910156 0.0273438 L 474.453125 291.835938 L 221.554688 417.972656 Z M 76.011719 126.167969 " clip-rule="nonzero"/></clipPath><clipPath id="be6a760f61"><path d="M 321 183 L 340 183 L 340 200 L 321 200 Z M 321 183 " clip-rule="nonzero"/></clipPath><clipPath id="7dc9a1734d"><path d="M 76.011719 126.167969 L 328.910156 0.0273438 L 474.453125 291.835938 L 221.554688 417.972656 Z M 76.011719 126.167969 " clip-rule="nonzero"/></clipPath><clipPath id="22fa15b535"><path d="M 76.011719 126.167969 L 328.910156 0.0273438 L 474.453125 291.835938 L 221.554688 417.972656 Z M 76.011719 126.167969 " clip-rule="nonzero"/></clipPath><clipPath id="f86865d091"><path d="M 317 296 L 353 296 L 353 331 L 317 331 Z M 317 296 " clip-rule="nonzero"/></clipPath><clipPath id="0d37b1b8d9"><path d="M 76.011719 126.167969 L 328.910156 0.0273438 L 474.453125 291.835938 L 221.554688 417.972656 Z M 76.011719 126.167969 " clip-rule="nonzero"/></clipPath><clipPath id="2bd8849a9a"><path d="M 76.011719 126.167969 L 328.910156 0.0273438 L 474.453125 291.835938 L 221.554688 417.972656 Z M 76.011719 126.167969 " clip-rule="nonzero"/></clipPath><clipPath id="489dfe7701"><path d="M 298 317 L 317 317 L 317 334 L 298 334 Z M 298 317 " clip-rule="nonzero"/></clipPath><clipPath id="1333a73c51"><path d="M 76.011719 126.167969 L 328.910156 0.0273438 L 474.453125 291.835938 L 221.554688 417.972656 Z M 76.011719 126.167969 " clip-rule="nonzero"/></clipPath><clipPath id="a0f5a38ea0"><path d="M 76.011719 126.167969 L 328.910156 0.0273438 L 474.453125 291.835938 L 221.554688 417.972656 Z M 76.011719 126.167969 " clip-rule="nonzero"/></clipPath><clipPath id="449a7f72b1"><path d="M 334 275 L 350 275 L 350 295 L 334 295 Z M 334 275 " clip-rule="nonzero"/></clipPath><clipPath id="9e8e4efc74"><path d="M 76.011719 126.167969 L 328.910156 0.0273438 L 474.453125 291.835938 L 221.554688 417.972656 Z M 76.011719 126.167969 " clip-rule="nonzero"/></clipPath><clipPath id="8f25905e8c"><path d="M 76.011719 126.167969 L 328.910156 0.0273438 L 474.453125 291.835938 L 221.554688 417.972656 Z M 76.011719 126.167969 " clip-rule="nonzero"/></clipPath><clipPath id="98fbfb485d"><path d="M 315 281 L 332 281 L 332 300 L 315 300 Z M 315 281 " clip-rule="nonzero"/></clipPath><clipPath id="9b0203ed0a"><path d="M 76.011719 126.167969 L 328.910156 0.0273438 L 474.453125 291.835938 L 221.554688 417.972656 Z M 76.011719 126.167969 " clip-rule="nonzero"/></clipPath><clipPath id="b70d8e15ac"><path d="M 76.011719 126.167969 L 328.910156 0.0273438 L 474.453125 291.835938 L 221.554688 417.972656 Z M 76.011719 126.167969 " clip-rule="nonzero"/></clipPath><clipPath id="64f94ad5a1"><path d="M 299 296 L 318 296 L 318 313 L 299 313 Z M 299 296 " clip-rule="nonzero"/></clipPath><clipPath id="685da4ab31"><path d="M 76.011719 126.167969 L 328.910156 0.0273438 L 474.453125 291.835938 L 221.554688 417.972656 Z M 76.011719 126.167969 " clip-rule="nonzero"/></clipPath><clipPath id="fdedc90bf4"><path d="M 76.011719 126.167969 L 328.910156 0.0273438 L 474.453125 291.835938 L 221.554688 417.972656 Z M 76.011719 126.167969 " clip-rule="nonzero"/></clipPath><clipPath id="0eb3952749"><path d="M 113 123 L 145 123 L 145 162 L 113 162 Z M 113 123 " clip-rule="nonzero"/></clipPath><clipPath id="d940103f1d"><path d="M 76.011719 126.167969 L 328.910156 0.0273438 L 474.453125 291.835938 L 221.554688 417.972656 Z M 76.011719 126.167969 " clip-rule="nonzero"/></clipPath><clipPath id="00441f5ae7"><path d="M 76.011719 126.167969 L 328.910156 0.0273438 L 474.453125 291.835938 L 221.554688 417.972656 Z M 76.011719 126.167969 " clip-rule="nonzero"/></clipPath><clipPath id="f9fdf7d083"><path d="M 97 157 L 117 157 L 117 173 L 97 173 Z M 97 157 " clip-rule="nonzero"/></clipPath><clipPath id="e0182bee6e"><path d="M 76.011719 126.167969 L 328.910156 0.0273438 L 474.453125 291.835938 L 221.554688 417.972656 Z M 76.011719 126.167969 " clip-rule="nonzero"/></clipPath><clipPath id="19f332f1d8"><path d="M 76.011719 126.167969 L 328.910156 0.0273438 L 474.453125 291.835938 L 221.554688 417.972656 Z M 76.011719 126.167969 " clip-rule="nonzero"/></clipPath><clipPath id="36db67f282"><path d="M 114 105 L 132 105 L 132 123 L 114 123 Z M 114 105 " clip-rule="nonzero"/></clipPath><clipPath id="2c9fc6f12f"><path d="M 76.011719 126.167969 L 328.910156 0.0273438 L 474.453125 291.835938 L 221.554688 417.972656 Z M 76.011719 126.167969 " clip-rule="nonzero"/></clipPath><clipPath id="3258637034"><path d="M 76.011719 126.167969 L 328.910156 0.0273438 L 474.453125 291.835938 L 221.554688 417.972656 Z M 76.011719 126.167969 " clip-rule="nonzero"/></clipPath><clipPath id="90799192ab"><path d="M 99 118 L 117 118 L 117 135 L 99 135 Z M 99 118 " clip-rule="nonzero"/></clipPath><clipPath id="f4a46a8a3d"><path d="M 76.011719 126.167969 L 328.910156 0.0273438 L 474.453125 291.835938 L 221.554688 417.972656 Z M 76.011719 126.167969 " clip-rule="nonzero"/></clipPath><clipPath id="9b1932d05f"><path d="M 76.011719 126.167969 L 328.910156 0.0273438 L 474.453125 291.835938 L 221.554688 417.972656 Z M 76.011719 126.167969 " clip-rule="nonzero"/></clipPath><clipPath id="79a8bbc938"><path d="M 90 137 L 110 137 L 110 154 L 90 154 Z M 90 137 " clip-rule="nonzero"/></clipPath><clipPath id="371aafff7c"><path d="M 76.011719 126.167969 L 328.910156 0.0273438 L 474.453125 291.835938 L 221.554688 417.972656 Z M 76.011719 126.167969 " clip-rule="nonzero"/></clipPath><clipPath id="fd6eba5b73"><path d="M 76.011719 126.167969 L 328.910156 0.0273438 L 474.453125 291.835938 L 221.554688 417.972656 Z M 76.011719 126.167969 " clip-rule="nonzero"/></clipPath><clipPath id="e40481040e"><path d="M 425 269 L 461 269 L 461 305 L 425 305 Z M 425 269 " clip-rule="nonzero"/></clipPath><clipPath id="409ae09207"><path d="M 76.011719 126.167969 L 328.910156 0.0273438 L 474.453125 291.835938 L 221.554688 417.972656 Z M 76.011719 126.167969 " clip-rule="nonzero"/></clipPath><clipPath id="936e8dd655"><path d="M 76.011719 126.167969 L 328.910156 0.0273438 L 474.453125 291.835938 L 221.554688 417.972656 Z M 76.011719 126.167969 " clip-rule="nonzero"/></clipPath><clipPath id="d022faddc0"><path d="M 406 292 L 425 292 L 425 308 L 406 308 Z M 406 292 " clip-rule="nonzero"/></clipPath><clipPath id="035b80325d"><path d="M 76.011719 126.167969 L 328.910156 0.0273438 L 474.453125 291.835938 L 221.554688 417.972656 Z M 76.011719 126.167969 " clip-rule="nonzero"/></clipPath><clipPath id="64f26c25da"><path d="M 76.011719 126.167969 L 328.910156 0.0273438 L 474.453125 291.835938 L 221.554688 417.972656 Z M 76.011719 126.167969 " clip-rule="nonzero"/></clipPath><clipPath id="8e6e5f2337"><path d="M 440 248 L 457 248 L 457 268 L 440 268 Z M 440 248 " clip-rule="nonzero"/></clipPath><clipPath id="5f2cc9565b"><path d="M 76.011719 126.167969 L 328.910156 0.0273438 L 474.453125 291.835938 L 221.554688 417.972656 Z M 76.011719 126.167969 " clip-rule="nonzero"/></clipPath><clipPath id="4072a991f9"><path d="M 76.011719 126.167969 L 328.910156 0.0273438 L 474.453125 291.835938 L 221.554688 417.972656 Z M 76.011719 126.167969 " clip-rule="nonzero"/></clipPath><clipPath id="92e862af63"><path d="M 421 255 L 439 255 L 439 274 L 421 274 Z M 421 255 " clip-rule="nonzero"/></clipPath><clipPath id="26457767c1"><path d="M 76.011719 126.167969 L 328.910156 0.0273438 L 474.453125 291.835938 L 221.554688 417.972656 Z M 76.011719 126.167969 " clip-rule="nonzero"/></clipPath><clipPath id="b66786726b"><path d="M 76.011719 126.167969 L 328.910156 0.0273438 L 474.453125 291.835938 L 221.554688 417.972656 Z M 76.011719 126.167969 " clip-rule="nonzero"/></clipPath><clipPath id="a4a2331b8e"><path d="M 407 271 L 425 271 L 425 288 L 407 288 Z M 407 271 " clip-rule="nonzero"/></clipPath><clipPath id="1d8a67333a"><path d="M 76.011719 126.167969 L 328.910156 0.0273438 L 474.453125 291.835938 L 221.554688 417.972656 Z M 76.011719 126.167969 " clip-rule="nonzero"/></clipPath><clipPath id="08793e78c1"><path d="M 76.011719 126.167969 L 328.910156 0.0273438 L 474.453125 291.835938 L 221.554688 417.972656 Z M 76.011719 126.167969 " clip-rule="nonzero"/></clipPath><clipPath id="01c2e94fe9"><path d="M 1212 810 L 1251 810 L 1251 846 L 1212 846 Z M 1212 810 " clip-rule="nonzero"/></clipPath><clipPath id="568185a332"><path d="M 1061.679688 728.585938 L 1315.636719 604.597656 L 1458.703125 897.628906 L 1204.742188 1021.617188 Z M 1061.679688 728.585938 " clip-rule="nonzero"/></clipPath><clipPath id="cd0d2e8a95"><path d="M 1061.679688 728.585938 L 1315.636719 604.597656 L 1458.703125 897.628906 L 1204.742188 1021.617188 Z M 1061.679688 728.585938 " clip-rule="nonzero"/></clipPath><clipPath id="0f88f70c9e"><path d="M 1192 831 L 1211 831 L 1211 848 L 1192 848 Z M 1192 831 " clip-rule="nonzero"/></clipPath><clipPath id="a5dd1f5af1"><path d="M 1061.679688 728.585938 L 1315.636719 604.597656 L 1458.703125 897.628906 L 1204.742188 1021.617188 Z M 1061.679688 728.585938 " clip-rule="nonzero"/></clipPath><clipPath id="6b67f8d21b"><path d="M 1061.679688 728.585938 L 1315.636719 604.597656 L 1458.703125 897.628906 L 1204.742188 1021.617188 Z M 1061.679688 728.585938 " clip-rule="nonzero"/></clipPath><clipPath id="ced8d64f2c"><path d="M 1229 790 L 1245 790 L 1245 809 L 1229 809 Z M 1229 790 " clip-rule="nonzero"/></clipPath><clipPath id="23a57e781a"><path d="M 1061.679688 728.585938 L 1315.636719 604.597656 L 1458.703125 897.628906 L 1204.742188 1021.617188 Z M 1061.679688 728.585938 " clip-rule="nonzero"/></clipPath><clipPath id="c4b59f5840"><path d="M 1061.679688 728.585938 L 1315.636719 604.597656 L 1458.703125 897.628906 L 1204.742188 1021.617188 Z M 1061.679688 728.585938 " clip-rule="nonzero"/></clipPath><clipPath id="9eeeb11f9b"><path d="M 1210 796 L 1227 796 L 1227 814 L 1210 814 Z M 1210 796 " clip-rule="nonzero"/></clipPath><clipPath id="d07985fdc0"><path d="M 1061.679688 728.585938 L 1315.636719 604.597656 L 1458.703125 897.628906 L 1204.742188 1021.617188 Z M 1061.679688 728.585938 " clip-rule="nonzero"/></clipPath><clipPath id="155e0f1949"><path d="M 1061.679688 728.585938 L 1315.636719 604.597656 L 1458.703125 897.628906 L 1204.742188 1021.617188 Z M 1061.679688 728.585938 " clip-rule="nonzero"/></clipPath><clipPath id="00219df5f2"><path d="M 1194 810 L 1213 810 L 1213 828 L 1194 828 Z M 1194 810 " clip-rule="nonzero"/></clipPath><clipPath id="c48aa54b1f"><path d="M 1061.679688 728.585938 L 1315.636719 604.597656 L 1458.703125 897.628906 L 1204.742188 1021.617188 Z M 1061.679688 728.585938 " clip-rule="nonzero"/></clipPath><clipPath id="3bd2385336"><path d="M 1061.679688 728.585938 L 1315.636719 604.597656 L 1458.703125 897.628906 L 1204.742188 1021.617188 Z M 1061.679688 728.585938 " clip-rule="nonzero"/></clipPath><clipPath id="733c9938e6"><path d="M 1202 683 L 1237 683 L 1237 720 L 1202 720 Z M 1202 683 " clip-rule="nonzero"/></clipPath><clipPath id="2471a5530f"><path d="M 1061.679688 728.585938 L 1315.636719 604.597656 L 1458.703125 897.628906 L 1204.742188 1021.617188 Z M 1061.679688 728.585938 " clip-rule="nonzero"/></clipPath><clipPath id="63a8916d7b"><path d="M 1061.679688 728.585938 L 1315.636719 604.597656 L 1458.703125 897.628906 L 1204.742188 1021.617188 Z M 1061.679688 728.585938 " clip-rule="nonzero"/></clipPath><clipPath id="ade22df046"><path d="M 1183 708 L 1203 708 L 1203 725 L 1183 725 Z M 1183 708 " clip-rule="nonzero"/></clipPath><clipPath id="9801a3a4ba"><path d="M 1061.679688 728.585938 L 1315.636719 604.597656 L 1458.703125 897.628906 L 1204.742188 1021.617188 Z M 1061.679688 728.585938 " clip-rule="nonzero"/></clipPath><clipPath id="c0fc9b2e73"><path d="M 1061.679688 728.585938 L 1315.636719 604.597656 L 1458.703125 897.628906 L 1204.742188 1021.617188 Z M 1061.679688 728.585938 " clip-rule="nonzero"/></clipPath><clipPath id="0c434f936e"><path d="M 1215 663 L 1232 663 L 1232 683 L 1215 683 Z M 1215 663 " clip-rule="nonzero"/></clipPath><clipPath id="831a990bde"><path d="M 1061.679688 728.585938 L 1315.636719 604.597656 L 1458.703125 897.628906 L 1204.742188 1021.617188 Z M 1061.679688 728.585938 " clip-rule="nonzero"/></clipPath><clipPath id="886c1da3c2"><path d="M 1061.679688 728.585938 L 1315.636719 604.597656 L 1458.703125 897.628906 L 1204.742188 1021.617188 Z M 1061.679688 728.585938 " clip-rule="nonzero"/></clipPath><clipPath id="318a904d04"><path d="M 1197 671 L 1214 671 L 1214 690 L 1197 690 Z M 1197 671 " clip-rule="nonzero"/></clipPath><clipPath id="cc6acc4dae"><path d="M 1061.679688 728.585938 L 1315.636719 604.597656 L 1458.703125 897.628906 L 1204.742188 1021.617188 Z M 1061.679688 728.585938 " clip-rule="nonzero"/></clipPath><clipPath id="7d521090ca"><path d="M 1061.679688 728.585938 L 1315.636719 604.597656 L 1458.703125 897.628906 L 1204.742188 1021.617188 Z M 1061.679688 728.585938 " clip-rule="nonzero"/></clipPath><clipPath id="eb7f3352b6"><path d="M 1183 687 L 1202 687 L 1202 705 L 1183 705 Z M 1183 687 " clip-rule="nonzero"/></clipPath><clipPath id="1afac8e66c"><path d="M 1061.679688 728.585938 L 1315.636719 604.597656 L 1458.703125 897.628906 L 1204.742188 1021.617188 Z M 1061.679688 728.585938 " clip-rule="nonzero"/></clipPath><clipPath id="20cd3098be"><path d="M 1061.679688 728.585938 L 1315.636719 604.597656 L 1458.703125 897.628906 L 1204.742188 1021.617188 Z M 1061.679688 728.585938 " clip-rule="nonzero"/></clipPath><clipPath id="fe4b53e165"><path d="M 1324 787 L 1360 787 L 1360 823 L 1324 823 Z M 1324 787 " clip-rule="nonzero"/></clipPath><clipPath id="810b570ec7"><path d="M 1061.679688 728.585938 L 1315.636719 604.597656 L 1458.703125 897.628906 L 1204.742188 1021.617188 Z M 1061.679688 728.585938 " clip-rule="nonzero"/></clipPath><clipPath id="ff951e0aa6"><path d="M 1061.679688 728.585938 L 1315.636719 604.597656 L 1458.703125 897.628906 L 1204.742188 1021.617188 Z M 1061.679688 728.585938 " clip-rule="nonzero"/></clipPath><clipPath id="ee8f84b6a2"><path d="M 1304 808 L 1323 808 L 1323 825 L 1304 825 Z M 1304 808 " clip-rule="nonzero"/></clipPath><clipPath id="e62ee6c03f"><path d="M 1061.679688 728.585938 L 1315.636719 604.597656 L 1458.703125 897.628906 L 1204.742188 1021.617188 Z M 1061.679688 728.585938 " clip-rule="nonzero"/></clipPath><clipPath id="a732aae7c8"><path d="M 1061.679688 728.585938 L 1315.636719 604.597656 L 1458.703125 897.628906 L 1204.742188 1021.617188 Z M 1061.679688 728.585938 " clip-rule="nonzero"/></clipPath><clipPath id="ce32a341cd"><path d="M 1341 767 L 1357 767 L 1357 787 L 1341 787 Z M 1341 767 " clip-rule="nonzero"/></clipPath><clipPath id="580ed7142b"><path d="M 1061.679688 728.585938 L 1315.636719 604.597656 L 1458.703125 897.628906 L 1204.742188 1021.617188 Z M 1061.679688 728.585938 " clip-rule="nonzero"/></clipPath><clipPath id="82c55aefcb"><path d="M 1061.679688 728.585938 L 1315.636719 604.597656 L 1458.703125 897.628906 L 1204.742188 1021.617188 Z M 1061.679688 728.585938 " clip-rule="nonzero"/></clipPath><clipPath id="4554b312aa"><path d="M 1322 773 L 1339 773 L 1339 792 L 1322 792 Z M 1322 773 " clip-rule="nonzero"/></clipPath><clipPath id="dda6b8585a"><path d="M 1061.679688 728.585938 L 1315.636719 604.597656 L 1458.703125 897.628906 L 1204.742188 1021.617188 Z M 1061.679688 728.585938 " clip-rule="nonzero"/></clipPath><clipPath id="f59e20339e"><path d="M 1061.679688 728.585938 L 1315.636719 604.597656 L 1458.703125 897.628906 L 1204.742188 1021.617188 Z M 1061.679688 728.585938 " clip-rule="nonzero"/></clipPath><clipPath id="70ed8d1ab7"><path d="M 1306 788 L 1325 788 L 1325 805 L 1306 805 Z M 1306 788 " clip-rule="nonzero"/></clipPath><clipPath id="883e06e243"><path d="M 1061.679688 728.585938 L 1315.636719 604.597656 L 1458.703125 897.628906 L 1204.742188 1021.617188 Z M 1061.679688 728.585938 " clip-rule="nonzero"/></clipPath><clipPath id="c652f34cb8"><path d="M 1061.679688 728.585938 L 1315.636719 604.597656 L 1458.703125 897.628906 L 1204.742188 1021.617188 Z M 1061.679688 728.585938 " clip-rule="nonzero"/></clipPath><clipPath id="e685458f60"><path d="M 1301 900 L 1337 900 L 1337 936 L 1301 936 Z M 1301 900 " clip-rule="nonzero"/></clipPath><clipPath id="32a749c9ae"><path d="M 1061.679688 728.585938 L 1315.636719 604.597656 L 1458.703125 897.628906 L 1204.742188 1021.617188 Z M 1061.679688 728.585938 " clip-rule="nonzero"/></clipPath><clipPath id="934a4ef1b4"><path d="M 1061.679688 728.585938 L 1315.636719 604.597656 L 1458.703125 897.628906 L 1204.742188 1021.617188 Z M 1061.679688 728.585938 " clip-rule="nonzero"/></clipPath><clipPath id="444032ede3"><path d="M 1282 921 L 1301 921 L 1301 938 L 1282 938 Z M 1282 921 " clip-rule="nonzero"/></clipPath><clipPath id="8da0e222e1"><path d="M 1061.679688 728.585938 L 1315.636719 604.597656 L 1458.703125 897.628906 L 1204.742188 1021.617188 Z M 1061.679688 728.585938 " clip-rule="nonzero"/></clipPath><clipPath id="414832836c"><path d="M 1061.679688 728.585938 L 1315.636719 604.597656 L 1458.703125 897.628906 L 1204.742188 1021.617188 Z M 1061.679688 728.585938 " clip-rule="nonzero"/></clipPath><clipPath id="03b3555ce9"><path d="M 1318 880 L 1335 880 L 1335 900 L 1318 900 Z M 1318 880 " clip-rule="nonzero"/></clipPath><clipPath id="0e30885d18"><path d="M 1061.679688 728.585938 L 1315.636719 604.597656 L 1458.703125 897.628906 L 1204.742188 1021.617188 Z M 1061.679688 728.585938 " clip-rule="nonzero"/></clipPath><clipPath id="06b6fce9f9"><path d="M 1061.679688 728.585938 L 1315.636719 604.597656 L 1458.703125 897.628906 L 1204.742188 1021.617188 Z M 1061.679688 728.585938 " clip-rule="nonzero"/></clipPath><clipPath id="6e83eef129"><path d="M 1299 886 L 1317 886 L 1317 905 L 1299 905 Z M 1299 886 " clip-rule="nonzero"/></clipPath><clipPath id="f612ac7a59"><path d="M 1061.679688 728.585938 L 1315.636719 604.597656 L 1458.703125 897.628906 L 1204.742188 1021.617188 Z M 1061.679688 728.585938 " clip-rule="nonzero"/></clipPath><clipPath id="5c143ac1c0"><path d="M 1061.679688 728.585938 L 1315.636719 604.597656 L 1458.703125 897.628906 L 1204.742188 1021.617188 Z M 1061.679688 728.585938 " clip-rule="nonzero"/></clipPath><clipPath id="0af040f783"><path d="M 1284 900 L 1302 900 L 1302 918 L 1284 918 Z M 1284 900 " clip-rule="nonzero"/></clipPath><clipPath id="c9288458c1"><path d="M 1061.679688 728.585938 L 1315.636719 604.597656 L 1458.703125 897.628906 L 1204.742188 1021.617188 Z M 1061.679688 728.585938 " clip-rule="nonzero"/></clipPath><clipPath id="973243bb35"><path d="M 1061.679688 728.585938 L 1315.636719 604.597656 L 1458.703125 897.628906 L 1204.742188 1021.617188 Z M 1061.679688 728.585938 " clip-rule="nonzero"/></clipPath><clipPath id="861b36bce3"><path d="M 1099 726 L 1130 726 L 1130 765 L 1099 765 Z M 1099 726 " clip-rule="nonzero"/></clipPath><clipPath id="1be7a070a6"><path d="M 1061.679688 728.585938 L 1315.636719 604.597656 L 1458.703125 897.628906 L 1204.742188 1021.617188 Z M 1061.679688 728.585938 " clip-rule="nonzero"/></clipPath><clipPath id="206c20931d"><path d="M 1061.679688 728.585938 L 1315.636719 604.597656 L 1458.703125 897.628906 L 1204.742188 1021.617188 Z M 1061.679688 728.585938 " clip-rule="nonzero"/></clipPath><clipPath id="c910d2e2d0"><path d="M 1082 760 L 1102 760 L 1102 776 L 1082 776 Z M 1082 760 " clip-rule="nonzero"/></clipPath><clipPath id="2fdbecc345"><path d="M 1061.679688 728.585938 L 1315.636719 604.597656 L 1458.703125 897.628906 L 1204.742188 1021.617188 Z M 1061.679688 728.585938 " clip-rule="nonzero"/></clipPath><clipPath id="eeda5a46f7"><path d="M 1061.679688 728.585938 L 1315.636719 604.597656 L 1458.703125 897.628906 L 1204.742188 1021.617188 Z M 1061.679688 728.585938 " clip-rule="nonzero"/></clipPath><clipPath id="0f771383eb"><path d="M 1100 708 L 1117 708 L 1117 726 L 1100 726 Z M 1100 708 " clip-rule="nonzero"/></clipPath><clipPath id="e79b9efe2a"><path d="M 1061.679688 728.585938 L 1315.636719 604.597656 L 1458.703125 897.628906 L 1204.742188 1021.617188 Z M 1061.679688 728.585938 " clip-rule="nonzero"/></clipPath><clipPath id="3ed33d6def"><path d="M 1061.679688 728.585938 L 1315.636719 604.597656 L 1458.703125 897.628906 L 1204.742188 1021.617188 Z M 1061.679688 728.585938 " clip-rule="nonzero"/></clipPath><clipPath id="fa78c6b071"><path d="M 1084 721 L 1103 721 L 1103 738 L 1084 738 Z M 1084 721 " clip-rule="nonzero"/></clipPath><clipPath id="7ed44965cd"><path d="M 1061.679688 728.585938 L 1315.636719 604.597656 L 1458.703125 897.628906 L 1204.742188 1021.617188 Z M 1061.679688 728.585938 " clip-rule="nonzero"/></clipPath><clipPath id="da60ffad6f"><path d="M 1061.679688 728.585938 L 1315.636719 604.597656 L 1458.703125 897.628906 L 1204.742188 1021.617188 Z M 1061.679688 728.585938 " clip-rule="nonzero"/></clipPath><clipPath id="93eacdb9e6"><path d="M 1076 740 L 1095 740 L 1095 756 L 1076 756 Z M 1076 740 " clip-rule="nonzero"/></clipPath><clipPath id="ef7bdae3a3"><path d="M 1061.679688 728.585938 L 1315.636719 604.597656 L 1458.703125 897.628906 L 1204.742188 1021.617188 Z M 1061.679688 728.585938 " clip-rule="nonzero"/></clipPath><clipPath id="0c70a74f42"><path d="M 1061.679688 728.585938 L 1315.636719 604.597656 L 1458.703125 897.628906 L 1204.742188 1021.617188 Z M 1061.679688 728.585938 " clip-rule="nonzero"/></clipPath><clipPath id="6c7709ae64"><path d="M 1409 874 L 1439.644531 874 L 1439.644531 910 L 1409 910 Z M 1409 874 " clip-rule="nonzero"/></clipPath><clipPath id="a42c0f0442"><path d="M 1061.679688 728.585938 L 1315.636719 604.597656 L 1458.703125 897.628906 L 1204.742188 1021.617188 Z M 1061.679688 728.585938 " clip-rule="nonzero"/></clipPath><clipPath id="844a994357"><path d="M 1061.679688 728.585938 L 1315.636719 604.597656 L 1458.703125 897.628906 L 1204.742188 1021.617188 Z M 1061.679688 728.585938 " clip-rule="nonzero"/></clipPath><clipPath id="10b4641111"><path d="M 1390 897 L 1409 897 L 1409 914 L 1390 914 Z M 1390 897 " clip-rule="nonzero"/></clipPath><clipPath id="e6251a9325"><path d="M 1061.679688 728.585938 L 1315.636719 604.597656 L 1458.703125 897.628906 L 1204.742188 1021.617188 Z M 1061.679688 728.585938 " clip-rule="nonzero"/></clipPath><clipPath id="daae1c9eec"><path d="M 1061.679688 728.585938 L 1315.636719 604.597656 L 1458.703125 897.628906 L 1204.742188 1021.617188 Z M 1061.679688 728.585938 " clip-rule="nonzero"/></clipPath><clipPath id="23e7a70f77"><path d="M 1425 854 L 1439.644531 854 L 1439.644531 873 L 1425 873 Z M 1425 854 " clip-rule="nonzero"/></clipPath><clipPath id="ab6618487f"><path d="M 1061.679688 728.585938 L 1315.636719 604.597656 L 1458.703125 897.628906 L 1204.742188 1021.617188 Z M 1061.679688 728.585938 " clip-rule="nonzero"/></clipPath><clipPath id="bea16fac91"><path d="M 1061.679688 728.585938 L 1315.636719 604.597656 L 1458.703125 897.628906 L 1204.742188 1021.617188 Z M 1061.679688 728.585938 " clip-rule="nonzero"/></clipPath><clipPath id="0abdd30a66"><path d="M 1406 861 L 1423 861 L 1423 879 L 1406 879 Z M 1406 861 " clip-rule="nonzero"/></clipPath><clipPath id="6e65a5d561"><path d="M 1061.679688 728.585938 L 1315.636719 604.597656 L 1458.703125 897.628906 L 1204.742188 1021.617188 Z M 1061.679688 728.585938 " clip-rule="nonzero"/></clipPath><clipPath id="f3fda8a0e7"><path d="M 1061.679688 728.585938 L 1315.636719 604.597656 L 1458.703125 897.628906 L 1204.742188 1021.617188 Z M 1061.679688 728.585938 " clip-rule="nonzero"/></clipPath><clipPath id="a7fab92687"><path d="M 1391 876 L 1410 876 L 1410 893 L 1391 893 Z M 1391 876 " clip-rule="nonzero"/></clipPath><clipPath id="6655ab56e8"><path d="M 1061.679688 728.585938 L 1315.636719 604.597656 L 1458.703125 897.628906 L 1204.742188 1021.617188 Z M 1061.679688 728.585938 " clip-rule="nonzero"/></clipPath><clipPath id="290f65a319"><path d="M 1061.679688 728.585938 L 1315.636719 604.597656 L 1458.703125 897.628906 L 1204.742188 1021.617188 Z M 1061.679688 728.585938 " clip-rule="nonzero"/></clipPath></defs><g clip-path="url(#a74f895275)"><path fill="#ffffff" d="M 0.355469 0 L 1439.644531 0 L 1439.644531 1012 L 0.355469 1012 Z M 0.355469 0 " fill-opacity="1" fill-rule="nonzero"/><path fill="#fdf6f0" d="M 0.355469 0 L 1439.644531 0 L 1439.644531 1012 L 0.355469 1012 Z M 0.355469 0 " fill-opacity="1" fill-rule="nonzero"/></g><g clip-path="url(#8b70212d01)"><g clip-path="url(#da13526f53)"><g clip-path="url(#37f7fd63b7)"><path fill="#ffe9b9" d="M 257.941406 209.664062 C 263.25 215.078125 273.265625 218.953125 256.347656 235.539062 C 248.753906 242.984375 237.15625 243.46875 230.445312 236.621094 C 223.730469 229.769531 229.726562 223.578125 237.320312 216.128906 C 244.914062 208.6875 251.226562 202.8125 257.941406 209.664062 " fill-opacity="1" fill-rule="evenodd"/></g></g></g><g clip-path="url(#d84b50d254)"><g clip-path="url(#50cd9eed59)"><g clip-path="url(#2e3bb28bb1)"><path fill="#ffe9b9" d="M 220.359375 229.125 C 225.039062 231.355469 227.382812 236.214844 225.585938 239.980469 C 223.792969 243.746094 218.546875 244.988281 213.863281 242.757812 C 209.1875 240.527344 206.847656 235.667969 208.636719 231.90625 C 210.429688 228.140625 215.679688 226.894531 220.359375 229.125 " fill-opacity="1" fill-rule="evenodd"/></g></g></g><g clip-path="url(#279e4dc9af)"><g clip-path="url(#a94c255788)"><g clip-path="url(#34bc24570f)"><path fill="#ffe9b9" d="M 259.351562 193.582031 C 260.835938 198.550781 258.800781 203.542969 254.808594 204.742188 C 250.8125 205.933594 246.367188 202.878906 244.882812 197.910156 C 243.398438 192.945312 245.433594 187.949219 249.425781 186.753906 C 253.421875 185.558594 257.863281 188.617188 259.351562 193.582031 " fill-opacity="1" fill-rule="evenodd"/></g></g></g><g clip-path="url(#248ad68030)"><g clip-path="url(#2f6a62af4a)"><g clip-path="url(#f7d622d068)"><path fill="#ffe9b9" d="M 239.8125 197.195312 C 242.667969 201.519531 242.160156 206.890625 238.679688 209.1875 C 235.199219 211.480469 230.066406 209.839844 227.210938 205.511719 C 224.355469 201.183594 224.859375 195.816406 228.339844 193.515625 C 231.820312 191.222656 236.957031 192.867188 239.8125 197.195312 " fill-opacity="1" fill-rule="evenodd"/></g></g></g><g clip-path="url(#470dede6f9)"><g clip-path="url(#d68ba65330)"><g clip-path="url(#a43fa90fab)"><path fill="#ffe9b9" d="M 222.996094 209.304688 C 227.160156 212.394531 228.523438 217.613281 226.039062 220.960938 C 223.550781 224.308594 218.160156 224.519531 214 221.429688 C 209.835938 218.34375 208.476562 213.121094 210.960938 209.773438 C 213.445312 206.425781 218.832031 206.214844 222.996094 209.304688 " fill-opacity="1" fill-rule="evenodd"/></g></g></g><g clip-path="url(#e23f8e083d)"><g clip-path="url(#680fba1cea)"><g clip-path="url(#f6ba6bc7c4)"><path fill="#ffe9b9" d="M 244.726562 82.246094 C 252.175781 88.285156 252.792969 99.878906 246.101562 108.140625 C 239.40625 116.402344 227.941406 118.207031 220.488281 112.167969 C 213.035156 106.132812 218.289062 99.292969 224.976562 91.03125 C 231.671875 82.769531 237.273438 76.210938 244.726562 82.246094 " fill-opacity="1" fill-rule="evenodd"/></g></g></g><g clip-path="url(#77d5462930)"><g clip-path="url(#6a2495cd50)"><g clip-path="url(#8258d13c4f)"><path fill="#ffe9b9" d="M 209.613281 105.875 C 214.519531 107.558594 217.402344 112.117188 216.050781 116.0625 C 214.695312 120.007812 209.625 121.84375 204.71875 120.164062 C 199.816406 118.484375 196.9375 113.921875 198.289062 109.976562 C 199.640625 106.035156 204.710938 104.195312 209.613281 105.875 " fill-opacity="1" fill-rule="evenodd"/></g></g></g><g clip-path="url(#645ed04af0)"><g clip-path="url(#c9a4b5bcd6)"><g clip-path="url(#3a778589c6)"><path fill="#ffe9b9" d="M 244.289062 66.113281 C 246.332031 70.878906 244.882812 76.074219 241.050781 77.71875 C 237.21875 79.359375 232.453125 76.832031 230.410156 72.066406 C 228.367188 67.300781 229.816406 62.105469 233.652344 60.460938 C 237.484375 58.820312 242.246094 61.347656 244.289062 66.113281 " fill-opacity="1" fill-rule="evenodd"/></g></g></g><g clip-path="url(#001b0e91cf)"><g clip-path="url(#206a7d48de)"><g clip-path="url(#6afaff1601)"><path fill="#ffe9b9" d="M 225.292969 71.929688 C 228.625 75.902344 228.730469 81.292969 225.539062 83.976562 C 222.34375 86.652344 217.054688 85.609375 213.722656 81.636719 C 210.390625 77.660156 210.28125 72.269531 213.476562 69.589844 C 216.667969 66.910156 221.960938 67.957031 225.292969 71.929688 " fill-opacity="1" fill-rule="evenodd"/></g></g></g><g clip-path="url(#96eb618025)"><g clip-path="url(#49cd847a95)"><g clip-path="url(#83f54e7067)"><path fill="#ffe9b9" d="M 209.96875 85.882812 C 214.457031 88.476562 216.40625 93.507812 214.320312 97.117188 C 212.234375 100.726562 206.90625 101.550781 202.417969 98.957031 C 197.929688 96.363281 195.976562 91.335938 198.066406 87.726562 C 200.152344 84.117188 205.480469 83.289062 209.96875 85.882812 " fill-opacity="1" fill-rule="evenodd"/></g></g></g><g clip-path="url(#46ad04f51f)"><g clip-path="url(#0b3f6c8257)"><g clip-path="url(#c4303a009a)"><path fill="#ffe9b9" d="M 369.816406 186 C 376.527344 192.847656 375.816406 204.433594 368.226562 211.878906 C 360.628906 219.320312 349.03125 219.804688 342.320312 212.957031 C 335.601562 206.105469 341.605469 199.914062 349.195312 192.46875 C 356.789062 185.023438 363.101562 179.148438 369.816406 186 " fill-opacity="1" fill-rule="evenodd"/></g></g></g><g clip-path="url(#2ab3d0ff1e)"><g clip-path="url(#9aefec653c)"><g clip-path="url(#9660f63631)"><path fill="#ffe9b9" d="M 332.234375 205.464844 C 336.917969 207.691406 339.257812 212.550781 337.460938 216.316406 C 335.671875 220.082031 330.421875 221.324219 325.738281 219.09375 C 321.058594 216.863281 318.722656 212.007812 320.511719 208.242188 C 322.308594 204.476562 327.554688 203.234375 332.234375 205.464844 " fill-opacity="1" fill-rule="evenodd"/></g></g></g><g clip-path="url(#4446c32fc4)"><g clip-path="url(#78e0125ed7)"><g clip-path="url(#844b568806)"><path fill="#ffe9b9" d="M 371.226562 169.917969 C 372.710938 174.886719 370.675781 179.882812 366.679688 181.074219 C 362.6875 182.269531 358.242188 179.214844 356.757812 174.246094 C 355.273438 169.277344 357.308594 164.285156 361.300781 163.089844 C 365.296875 161.894531 369.742188 164.949219 371.226562 169.917969 " fill-opacity="1" fill-rule="evenodd"/></g></g></g><g clip-path="url(#5e5c7e4038)"><g clip-path="url(#83df9e200c)"><g clip-path="url(#20537e9993)"><path fill="#ffe9b9" d="M 351.6875 173.527344 C 354.542969 177.855469 354.039062 183.226562 350.558594 185.519531 C 347.078125 187.816406 341.941406 186.171875 339.085938 181.847656 C 336.230469 177.519531 336.738281 172.148438 340.21875 169.851562 C 343.695312 167.554688 348.832031 169.199219 351.6875 173.527344 " fill-opacity="1" fill-rule="evenodd"/></g></g></g><g clip-path="url(#be6a760f61)"><g clip-path="url(#7dc9a1734d)"><g clip-path="url(#22fa15b535)"><path fill="#ffe9b9" d="M 334.871094 185.640625 C 339.035156 188.726562 340.398438 193.949219 337.910156 197.296875 C 335.425781 200.648438 330.039062 200.855469 325.875 197.765625 C 321.710938 194.675781 320.351562 189.457031 322.835938 186.109375 C 325.320312 182.761719 330.710938 182.550781 334.871094 185.640625 " fill-opacity="1" fill-rule="evenodd"/></g></g></g><g clip-path="url(#f86865d091)"><g clip-path="url(#0d37b1b8d9)"><g clip-path="url(#2bd8849a9a)"><path fill="#ffe9b9" d="M 348.085938 299.046875 C 354.800781 305.890625 354.085938 317.480469 346.492188 324.921875 C 338.902344 332.367188 327.304688 332.851562 320.589844 326.003906 C 313.875 319.15625 319.875 312.957031 327.46875 305.515625 C 335.058594 298.070312 341.375 292.195312 348.085938 299.046875 " fill-opacity="1" fill-rule="evenodd"/></g></g></g><g clip-path="url(#489dfe7701)"><g clip-path="url(#1333a73c51)"><g clip-path="url(#a0f5a38ea0)"><path fill="#ffe9b9" d="M 310.507812 318.511719 C 315.1875 320.738281 317.527344 325.597656 315.734375 329.363281 C 313.941406 333.128906 308.691406 334.371094 304.011719 332.140625 C 299.332031 329.910156 296.992188 325.050781 298.785156 321.285156 C 300.578125 317.523438 305.828125 316.277344 310.507812 318.511719 " fill-opacity="1" fill-rule="evenodd"/></g></g></g><g clip-path="url(#449a7f72b1)"><g clip-path="url(#9e8e4efc74)"><g clip-path="url(#8f25905e8c)"><path fill="#ffe9b9" d="M 349.496094 282.964844 C 350.984375 287.929688 348.949219 292.929688 344.953125 294.121094 C 340.957031 295.320312 336.515625 292.261719 335.03125 287.292969 C 333.546875 282.328125 335.578125 277.332031 339.574219 276.136719 C 343.566406 274.941406 348.011719 278 349.496094 282.964844 " fill-opacity="1" fill-rule="evenodd"/></g></g></g><g clip-path="url(#98fbfb485d)"><g clip-path="url(#9b0203ed0a)"><g clip-path="url(#b70d8e15ac)"><path fill="#ffe9b9" d="M 329.960938 286.574219 C 332.8125 290.902344 332.308594 296.273438 328.828125 298.570312 C 325.347656 300.863281 320.210938 299.21875 317.355469 294.894531 C 314.503906 290.566406 315.007812 285.195312 318.488281 282.898438 C 321.96875 280.601562 327.105469 282.246094 329.960938 286.574219 " fill-opacity="1" fill-rule="evenodd"/></g></g></g><g clip-path="url(#64f94ad5a1)"><g clip-path="url(#685da4ab31)"><g clip-path="url(#fdedc90bf4)"><path fill="#ffe9b9" d="M 313.144531 298.6875 C 317.304688 301.773438 318.667969 306.996094 316.183594 310.34375 C 313.699219 313.691406 308.308594 313.902344 304.148438 310.8125 C 299.980469 307.722656 298.621094 302.503906 301.109375 299.15625 C 303.59375 295.808594 308.980469 295.597656 313.144531 298.6875 " fill-opacity="1" fill-rule="evenodd"/></g></g></g><g clip-path="url(#0eb3952749)"><g clip-path="url(#d940103f1d)"><g clip-path="url(#00441f5ae7)"><path fill="#ffe9b9" d="M 133.785156 124.507812 C 142.683594 128.085938 146.679688 138.984375 142.710938 148.847656 C 138.746094 158.714844 128.3125 163.8125 119.417969 160.230469 C 110.515625 156.652344 113.527344 148.570312 117.492188 138.707031 C 121.460938 128.839844 124.886719 120.929688 133.785156 124.507812 " fill-opacity="1" fill-rule="evenodd"/></g></g></g><g clip-path="url(#f9fdf7d083)"><g clip-path="url(#e0182bee6e)"><g clip-path="url(#19f332f1d8)"><path fill="#ffe9b9" d="M 107.175781 157.410156 C 112.355469 157.578125 116.449219 161.089844 116.316406 165.257812 C 116.1875 169.425781 111.875 172.671875 106.695312 172.507812 C 101.511719 172.34375 97.421875 168.832031 97.550781 164.664062 C 97.683594 160.496094 101.992188 157.25 107.175781 157.410156 " fill-opacity="1" fill-rule="evenodd"/></g></g></g><g clip-path="url(#36db67f282)"><g clip-path="url(#2c9fc6f12f)"><g clip-path="url(#3258637034)"><path fill="#ffe9b9" d="M 128.625 109.210938 C 131.980469 113.167969 132.121094 118.558594 128.941406 121.253906 C 125.761719 123.953125 120.464844 122.9375 117.109375 118.984375 C 113.757812 115.027344 113.613281 109.636719 116.796875 106.9375 C 119.976562 104.242188 125.273438 105.257812 128.625 109.210938 " fill-opacity="1" fill-rule="evenodd"/></g></g></g><g clip-path="url(#90799192ab)"><g clip-path="url(#f4a46a8a3d)"><g clip-path="url(#9b1932d05f)"><path fill="#ffe9b9" d="M 112.179688 120.359375 C 116.527344 123.175781 118.222656 128.296875 115.953125 131.796875 C 113.6875 135.296875 108.324219 135.851562 103.972656 133.035156 C 99.621094 130.21875 97.929688 125.09375 100.195312 121.59375 C 102.460938 118.09375 107.828125 117.542969 112.179688 120.359375 " fill-opacity="1" fill-rule="evenodd"/></g></g></g><g clip-path="url(#79a8bbc938)"><g clip-path="url(#371aafff7c)"><g clip-path="url(#fd6eba5b73)"><path fill="#ffe9b9" d="M 101.636719 138.199219 C 106.6875 139.355469 110.027344 143.59375 109.097656 147.65625 C 108.164062 151.71875 103.3125 154.078125 98.261719 152.917969 C 93.203125 151.757812 89.863281 147.523438 90.796875 143.457031 C 91.730469 139.394531 96.582031 137.039062 101.636719 138.199219 " fill-opacity="1" fill-rule="evenodd"/></g></g></g><g clip-path="url(#e40481040e)"><g clip-path="url(#409ae09207)"><g clip-path="url(#936e8dd655)"><path fill="#ffe9b9" d="M 455.011719 271.796875 C 462.058594 278.308594 461.914062 289.914062 454.699219 297.722656 C 447.480469 305.53125 435.917969 306.582031 428.878906 300.074219 C 421.835938 293.5625 427.519531 287.082031 434.738281 279.273438 C 441.957031 271.464844 447.96875 265.289062 455.011719 271.796875 " fill-opacity="1" fill-rule="evenodd"/></g></g></g><g clip-path="url(#d022faddc0)"><g clip-path="url(#035b80325d)"><g clip-path="url(#64f26c25da)"><path fill="#ffe9b9" d="M 418.4375 293.085938 C 423.21875 295.082031 425.796875 299.820312 424.191406 303.667969 C 422.585938 307.515625 417.40625 309.019531 412.621094 307.019531 C 407.835938 305.023438 405.261719 300.289062 406.867188 296.4375 C 408.472656 292.589844 413.652344 291.089844 418.4375 293.085938 " fill-opacity="1" fill-rule="evenodd"/></g></g></g><g clip-path="url(#8e6e5f2337)"><g clip-path="url(#5f2cc9565b)"><g clip-path="url(#4072a991f9)"><path fill="#ffe9b9" d="M 455.632812 255.671875 C 457.359375 260.554688 455.574219 265.644531 451.640625 267.035156 C 447.710938 268.425781 443.125 265.59375 441.394531 260.703125 C 439.667969 255.816406 441.453125 250.726562 445.382812 249.332031 C 449.316406 247.945312 453.902344 250.78125 455.632812 255.671875 " fill-opacity="1" fill-rule="evenodd"/></g></g></g><g clip-path="url(#92e862af63)"><g clip-path="url(#26457767c1)"><g clip-path="url(#b66786726b)"><path fill="#ffe9b9" d="M 436.292969 260.234375 C 439.359375 264.417969 439.117188 269.804688 435.753906 272.269531 C 432.390625 274.734375 427.183594 273.34375 424.113281 269.164062 C 421.050781 264.980469 421.292969 259.59375 424.65625 257.128906 C 428.019531 254.664062 433.230469 256.054688 436.292969 260.234375 " fill-opacity="1" fill-rule="evenodd"/></g></g></g><g clip-path="url(#a4a2331b8e)"><g clip-path="url(#1d8a67333a)"><g clip-path="url(#08793e78c1)"><path fill="#ffe9b9" d="M 420.097656 273.15625 C 424.40625 276.039062 426.023438 281.183594 423.703125 284.652344 C 421.386719 288.117188 416.015625 288.59375 411.707031 285.714844 C 407.394531 282.832031 405.777344 277.6875 408.097656 274.21875 C 410.414062 270.753906 415.785156 270.277344 420.097656 273.15625 " fill-opacity="1" fill-rule="evenodd"/></g></g></g><g clip-path="url(#01c2e94fe9)"><g clip-path="url(#568185a332)"><g clip-path="url(#cd0d2e8a95)"><path fill="#ffe9b9" d="M 1242.894531 813.625 C 1248.160156 819.082031 1258.140625 823.042969 1241.085938 839.484375 C 1233.425781 846.863281 1221.824219 847.25 1215.171875 840.347656 C 1208.511719 833.441406 1214.5625 827.296875 1222.21875 819.914062 C 1229.875 812.535156 1236.238281 806.71875 1242.894531 813.625 " fill-opacity="1" fill-rule="evenodd"/></g></g></g><g clip-path="url(#0f88f70c9e)"><g clip-path="url(#a5dd1f5af1)"><g clip-path="url(#6b67f8d21b)"><path fill="#ffe9b9" d="M 1205.152344 832.765625 C 1209.8125 835.035156 1212.113281 839.914062 1210.285156 843.664062 C 1208.460938 847.414062 1203.203125 848.613281 1198.539062 846.34375 C 1193.882812 844.074219 1191.582031 839.195312 1193.40625 835.445312 C 1195.230469 831.695312 1200.488281 830.496094 1205.152344 832.765625 " fill-opacity="1" fill-rule="evenodd"/></g></g></g><g clip-path="url(#ced8d64f2c)"><g clip-path="url(#23a57e781a)"><g clip-path="url(#c4b59f5840)"><path fill="#ffe9b9" d="M 1244.441406 797.554688 C 1245.882812 802.535156 1243.808594 807.511719 1239.804688 808.675781 C 1235.796875 809.835938 1231.382812 806.738281 1229.9375 801.761719 C 1228.496094 796.78125 1230.570312 791.800781 1234.574219 790.644531 C 1238.578125 789.480469 1242.996094 792.578125 1244.441406 797.554688 " fill-opacity="1" fill-rule="evenodd"/></g></g></g><g clip-path="url(#9eeeb11f9b)"><g clip-path="url(#d07985fdc0)"><g clip-path="url(#155e0f1949)"><path fill="#ffe9b9" d="M 1224.871094 801 C 1227.691406 805.347656 1227.140625 810.714844 1223.640625 812.980469 C 1220.140625 815.25 1215.019531 813.5625 1212.199219 809.210938 C 1209.382812 804.859375 1209.933594 799.496094 1213.433594 797.226562 C 1216.933594 794.960938 1222.054688 796.648438 1224.871094 801 " fill-opacity="1" fill-rule="evenodd"/></g></g></g><g clip-path="url(#00219df5f2)"><g clip-path="url(#c48aa54b1f)"><g clip-path="url(#3bd2385336)"><path fill="#ffe9b9" d="M 1207.957031 812.96875 C 1212.089844 816.09375 1213.410156 821.320312 1210.898438 824.652344 C 1208.382812 827.976562 1202.992188 828.140625 1198.855469 825.015625 C 1194.71875 821.894531 1193.402344 816.660156 1195.914062 813.335938 C 1198.429688 810.007812 1203.816406 809.84375 1207.957031 812.96875 " fill-opacity="1" fill-rule="evenodd"/></g></g></g><g clip-path="url(#733c9938e6)"><g clip-path="url(#2471a5530f)"><g clip-path="url(#63a8916d7b)"><path fill="#ffe9b9" d="M 1230.761719 686.097656 C 1238.160156 692.199219 1238.679688 703.796875 1231.917969 712 C 1225.152344 720.207031 1213.671875 721.914062 1206.269531 715.8125 C 1198.867188 709.714844 1204.179688 702.921875 1210.9375 694.714844 C 1217.703125 686.511719 1223.359375 680 1230.761719 686.097656 " fill-opacity="1" fill-rule="evenodd"/></g></g></g><g clip-path="url(#ade22df046)"><g clip-path="url(#9801a3a4ba)"><g clip-path="url(#c0fc9b2e73)"><path fill="#ffe9b9" d="M 1195.449219 709.429688 C 1200.339844 711.152344 1203.183594 715.738281 1201.800781 719.671875 C 1200.414062 723.605469 1195.328125 725.398438 1190.433594 723.675781 C 1185.546875 721.953125 1182.703125 717.367188 1184.089844 713.433594 C 1185.472656 709.503906 1190.5625 707.707031 1195.449219 709.429688 " fill-opacity="1" fill-rule="evenodd"/></g></g></g><g clip-path="url(#0c434f936e)"><g clip-path="url(#831a990bde)"><g clip-path="url(#886c1da3c2)"><path fill="#ffe9b9" d="M 1230.460938 669.960938 C 1232.460938 674.746094 1230.96875 679.925781 1227.125 681.539062 C 1223.277344 683.148438 1218.535156 680.578125 1216.53125 675.796875 C 1214.53125 671.015625 1216.023438 665.832031 1219.871094 664.21875 C 1223.71875 662.609375 1228.457031 665.179688 1230.460938 669.960938 " fill-opacity="1" fill-rule="evenodd"/></g></g></g><g clip-path="url(#318a904d04)"><g clip-path="url(#cc6acc4dae)"><g clip-path="url(#7d521090ca)"><path fill="#ffe9b9" d="M 1211.414062 675.617188 C 1214.710938 679.621094 1214.777344 685.011719 1211.558594 687.664062 C 1208.34375 690.3125 1203.0625 689.226562 1199.761719 685.222656 C 1196.464844 681.222656 1196.402344 675.832031 1199.617188 673.179688 C 1202.835938 670.523438 1208.117188 671.617188 1211.414062 675.617188 " fill-opacity="1" fill-rule="evenodd"/></g></g></g><g clip-path="url(#eb7f3352b6)"><g clip-path="url(#1afac8e66c)"><g clip-path="url(#20cd3098be)"><path fill="#ffe9b9" d="M 1195.976562 689.441406 C 1200.441406 692.074219 1202.347656 697.121094 1200.230469 700.710938 C 1198.113281 704.300781 1192.777344 705.082031 1188.3125 702.449219 C 1183.84375 699.820312 1181.9375 694.773438 1184.054688 691.179688 C 1186.171875 687.589844 1191.507812 686.808594 1195.976562 689.441406 " fill-opacity="1" fill-rule="evenodd"/></g></g></g><g clip-path="url(#fe4b53e165)"><g clip-path="url(#810b570ec7)"><g clip-path="url(#ff951e0aa6)"><path fill="#ffe9b9" d="M 1354.964844 790.90625 C 1361.621094 797.8125 1360.8125 809.390625 1353.15625 816.769531 C 1345.5 824.152344 1333.898438 824.535156 1327.242188 817.628906 C 1320.585938 810.722656 1326.636719 804.582031 1334.292969 797.199219 C 1341.949219 789.824219 1348.3125 784.003906 1354.964844 790.90625 " fill-opacity="1" fill-rule="evenodd"/></g></g></g><g clip-path="url(#ee8f84b6a2)"><g clip-path="url(#e62ee6c03f)"><g clip-path="url(#a732aae7c8)"><path fill="#ffe9b9" d="M 1317.222656 810.050781 C 1321.882812 812.320312 1324.183594 817.199219 1322.355469 820.949219 C 1320.535156 824.699219 1315.273438 825.898438 1310.613281 823.628906 C 1305.949219 821.359375 1303.652344 816.480469 1305.476562 812.730469 C 1307.304688 808.980469 1312.5625 807.78125 1317.222656 810.050781 " fill-opacity="1" fill-rule="evenodd"/></g></g></g><g clip-path="url(#ce32a341cd)"><g clip-path="url(#580ed7142b)"><g clip-path="url(#82c55aefcb)"><path fill="#ffe9b9" d="M 1356.515625 774.839844 C 1357.957031 779.820312 1355.878906 784.796875 1351.875 785.957031 C 1347.871094 787.121094 1343.453125 784.023438 1342.007812 779.042969 C 1340.570312 774.066406 1342.644531 769.089844 1346.648438 767.925781 C 1350.652344 766.765625 1355.070312 769.859375 1356.515625 774.839844 " fill-opacity="1" fill-rule="evenodd"/></g></g></g><g clip-path="url(#4554b312aa)"><g clip-path="url(#dda6b8585a)"><g clip-path="url(#f59e20339e)"><path fill="#ffe9b9" d="M 1336.945312 778.285156 C 1339.765625 782.636719 1339.214844 788 1335.714844 790.265625 C 1332.214844 792.535156 1327.089844 790.84375 1324.273438 786.496094 C 1321.457031 782.144531 1322.007812 776.777344 1325.507812 774.511719 C 1329.003906 772.242188 1334.128906 773.933594 1336.945312 778.285156 " fill-opacity="1" fill-rule="evenodd"/></g></g></g><g clip-path="url(#70ed8d1ab7)"><g clip-path="url(#883e06e243)"><g clip-path="url(#c652f34cb8)"><path fill="#ffe9b9" d="M 1320.027344 790.253906 C 1324.164062 793.375 1325.480469 798.609375 1322.96875 801.933594 C 1320.453125 805.261719 1315.066406 805.425781 1310.929688 802.304688 C 1306.789062 799.175781 1305.472656 793.949219 1307.988281 790.621094 C 1310.5 787.292969 1315.890625 787.125 1320.027344 790.253906 " fill-opacity="1" fill-rule="evenodd"/></g></g></g><g clip-path="url(#e685458f60)"><g clip-path="url(#32a749c9ae)"><g clip-path="url(#934a4ef1b4)"><path fill="#ffe9b9" d="M 1332.28125 903.765625 C 1338.9375 910.667969 1338.125 922.25 1330.46875 929.628906 C 1322.8125 937.007812 1311.210938 937.394531 1304.554688 930.488281 C 1297.898438 923.585938 1303.953125 917.4375 1311.605469 910.058594 C 1319.261719 902.679688 1325.625 896.859375 1332.28125 903.765625 " fill-opacity="1" fill-rule="evenodd"/></g></g></g><g clip-path="url(#444032ede3)"><g clip-path="url(#8da0e222e1)"><g clip-path="url(#414832836c)"><path fill="#ffe9b9" d="M 1294.539062 922.910156 C 1299.199219 925.179688 1301.496094 930.058594 1299.671875 933.808594 C 1297.847656 937.558594 1292.585938 938.757812 1287.925781 936.488281 C 1283.265625 934.21875 1280.964844 929.339844 1282.789062 925.585938 C 1284.617188 921.839844 1289.875 920.640625 1294.539062 922.910156 " fill-opacity="1" fill-rule="evenodd"/></g></g></g><g clip-path="url(#03b3555ce9)"><g clip-path="url(#0e30885d18)"><g clip-path="url(#06b6fce9f9)"><path fill="#ffe9b9" d="M 1333.828125 887.699219 C 1335.269531 892.675781 1333.191406 897.65625 1329.1875 898.816406 C 1325.183594 899.980469 1320.765625 896.882812 1319.324219 891.902344 C 1317.878906 886.925781 1319.957031 881.949219 1323.960938 880.785156 C 1327.964844 879.621094 1332.382812 882.71875 1333.828125 887.699219 " fill-opacity="1" fill-rule="evenodd"/></g></g></g><g clip-path="url(#6e83eef129)"><g clip-path="url(#f612ac7a59)"><g clip-path="url(#5c143ac1c0)"><path fill="#ffe9b9" d="M 1314.261719 891.144531 C 1317.078125 895.496094 1316.527344 900.859375 1313.027344 903.125 C 1309.527344 905.390625 1304.40625 903.703125 1301.585938 899.355469 C 1298.769531 895.003906 1299.320312 889.636719 1302.820312 887.371094 C 1306.316406 885.101562 1311.441406 886.789062 1314.261719 891.144531 " fill-opacity="1" fill-rule="evenodd"/></g></g></g><g clip-path="url(#0af040f783)"><g clip-path="url(#c9288458c1)"><g clip-path="url(#973243bb35)"><path fill="#ffe9b9" d="M 1297.34375 903.113281 C 1301.476562 906.234375 1302.796875 911.464844 1300.28125 914.792969 C 1297.769531 918.121094 1292.375 918.285156 1288.242188 915.160156 C 1284.101562 912.035156 1282.789062 906.804688 1285.300781 903.476562 C 1287.816406 900.152344 1293.203125 899.984375 1297.34375 903.113281 " fill-opacity="1" fill-rule="evenodd"/></g></g></g><g clip-path="url(#861b36bce3)"><g clip-path="url(#1be7a070a6)"><g clip-path="url(#206c20931d)"><path fill="#ffe9b9" d="M 1119.46875 727.417969 C 1128.332031 731.070312 1132.238281 742.003906 1128.183594 751.832031 C 1124.136719 761.664062 1113.660156 766.671875 1104.792969 763.019531 C 1095.925781 759.363281 1099.003906 751.308594 1103.054688 741.476562 C 1107.105469 731.648438 1110.597656 723.761719 1119.46875 727.417969 " fill-opacity="1" fill-rule="evenodd"/></g></g></g><g clip-path="url(#c910d2e2d0)"><g clip-path="url(#2fdbecc345)"><g clip-path="url(#eeda5a46f7)"><path fill="#ffe9b9" d="M 1092.578125 760.09375 C 1097.753906 760.304688 1101.820312 763.851562 1101.652344 768.019531 C 1101.484375 772.183594 1097.148438 775.394531 1091.972656 775.183594 C 1086.789062 774.976562 1082.726562 771.429688 1082.890625 767.265625 C 1083.0625 763.097656 1087.394531 759.890625 1092.578125 760.09375 " fill-opacity="1" fill-rule="evenodd"/></g></g></g><g clip-path="url(#0f771383eb)"><g clip-path="url(#e79b9efe2a)"><g clip-path="url(#3ed33d6def)"><path fill="#ffe9b9" d="M 1114.4375 712.078125 C 1117.753906 716.0625 1117.851562 721.453125 1114.648438 724.125 C 1111.449219 726.792969 1106.160156 725.734375 1102.839844 721.75 C 1099.519531 717.769531 1099.421875 712.375 1102.625 709.703125 C 1105.828125 707.035156 1111.117188 708.097656 1114.4375 712.078125 " fill-opacity="1" fill-rule="evenodd"/></g></g></g><g clip-path="url(#fa78c6b071)"><g clip-path="url(#7ed44965cd)"><g clip-path="url(#da60ffad6f)"><path fill="#ffe9b9" d="M 1097.894531 723.085938 C 1102.222656 725.9375 1103.871094 731.074219 1101.574219 734.554688 C 1099.277344 738.035156 1093.910156 738.542969 1089.582031 735.691406 C 1085.253906 732.835938 1083.605469 727.699219 1085.902344 724.21875 C 1088.199219 720.738281 1093.566406 720.230469 1097.894531 723.085938 " fill-opacity="1" fill-rule="evenodd"/></g></g></g><g clip-path="url(#93eacdb9e6)"><g clip-path="url(#ef7bdae3a3)"><g clip-path="url(#0c70a74f42)"><path fill="#ffe9b9" d="M 1087.203125 740.835938 C 1092.242188 742.035156 1095.546875 746.300781 1094.582031 750.355469 C 1093.613281 754.410156 1088.742188 756.726562 1083.699219 755.523438 C 1078.65625 754.320312 1075.351562 750.0625 1076.320312 746.003906 C 1077.285156 741.949219 1082.160156 739.632812 1087.203125 740.835938 " fill-opacity="1" fill-rule="evenodd"/></g></g></g><g clip-path="url(#6c7709ae64)"><g clip-path="url(#a42c0f0442)"><g clip-path="url(#844a994357)"><path fill="#ffe9b9" d="M 1439.433594 877.425781 C 1446.421875 883.996094 1446.179688 895.601562 1438.898438 903.347656 C 1431.613281 911.09375 1420.046875 912.046875 1413.058594 905.480469 C 1406.070312 898.910156 1411.808594 892.476562 1419.09375 884.730469 C 1426.378906 876.984375 1432.445312 870.855469 1439.433594 877.425781 " fill-opacity="1" fill-rule="evenodd"/></g></g></g><g clip-path="url(#10b4641111)"><g clip-path="url(#e6251a9325)"><g clip-path="url(#daae1c9eec)"><path fill="#ffe9b9" d="M 1402.679688 898.402344 C 1407.445312 900.441406 1409.980469 905.199219 1408.34375 909.035156 C 1406.703125 912.867188 1401.511719 914.328125 1396.746094 912.289062 C 1391.976562 910.253906 1389.441406 905.492188 1391.078125 901.65625 C 1392.71875 897.824219 1397.914062 896.367188 1402.679688 898.402344 " fill-opacity="1" fill-rule="evenodd"/></g></g></g><g clip-path="url(#23e7a70f77)"><g clip-path="url(#ab6618487f)"><g clip-path="url(#bea16fac91)"><path fill="#ffe9b9" d="M 1440.1875 861.304688 C 1441.875 866.203125 1440.046875 871.277344 1436.101562 872.636719 C 1432.160156 873.992188 1427.597656 871.121094 1425.910156 866.214844 C 1424.222656 861.316406 1426.054688 856.238281 1429.996094 854.878906 C 1433.9375 853.527344 1438.503906 856.402344 1440.1875 861.304688 " fill-opacity="1" fill-rule="evenodd"/></g></g></g><g clip-path="url(#0abdd30a66)"><g clip-path="url(#6e65a5d561)"><g clip-path="url(#f3fda8a0e7)"><path fill="#ffe9b9" d="M 1420.8125 865.703125 C 1423.84375 869.914062 1423.554688 875.296875 1420.171875 877.734375 C 1416.789062 880.171875 1411.589844 878.734375 1408.558594 874.53125 C 1405.53125 870.324219 1405.816406 864.933594 1409.203125 862.5 C 1412.585938 860.0625 1417.785156 861.496094 1420.8125 865.703125 " fill-opacity="1" fill-rule="evenodd"/></g></g></g><g clip-path="url(#a7fab92687)"><g clip-path="url(#6655ab56e8)"><g clip-path="url(#290f65a319)"><path fill="#ffe9b9" d="M 1404.507812 878.488281 C 1408.792969 881.40625 1410.363281 886.566406 1408.015625 890.011719 C 1405.671875 893.460938 1400.296875 893.890625 1396.007812 890.972656 C 1391.722656 888.058594 1390.148438 882.898438 1392.496094 879.449219 C 1394.84375 876.003906 1400.21875 875.574219 1404.507812 878.488281 " fill-opacity="1" fill-rule="evenodd"/></g></g></g></svg>